<svg width="1000" height="760" viewBox="0 0 1000 760" fill="none" xmlns="http://www.w3.org/2000/svg">
  <rect width="1000" height="760" rx="28" fill="#8ED5F2"/>
  <path d="M134 292C167 173 300 84 467 78C642 72 849 148 865 297C876 398 814 526 666 591C531 651 340 646 230 580C112 510 94 437 134 292Z" fill="#CBE89F"/>
  <path d="M230 188C280 139 372 106 463 112C566 120 650 157 707 224C761 287 777 386 737 458C688 548 582 608 462 611C343 614 233 557 194 470C161 397 169 247 230 188Z" fill="#B2D985"/>
  <path d="M370 184C411 161 472 156 529 167C602 181 668 220 678 282C691 363 639 427 560 444C484 460 387 451 335 399C289 353 287 277 323 234C334 220 349 200 370 184Z" fill="#F2D7A8"/>
  <ellipse cx="501" cy="286" rx="126" ry="80" fill="#93D1F2"/>
  <ellipse cx="534" cy="466" rx="54" ry="36" fill="#8FD6DA"/>
  <ellipse cx="302" cy="477" rx="39" ry="28" fill="#8FD6DA"/>
  <ellipse cx="714" cy="393" rx="44" ry="29" fill="#8FD6DA"/>
  <path d="M226 414C298 340 384 323 464 356" stroke="#FFF4E1" stroke-width="12" stroke-linecap="round"/>
  <path d="M542 352C613 327 673 340 741 400" stroke="#FFF4E1" stroke-width="12" stroke-linecap="round"/>
  <path d="M500 368C494 446 453 516 383 579" stroke="#FFF4E1" stroke-width="12" stroke-linecap="round"/>
  <path d="M537 388C581 456 641 535 730 585" stroke="#FFF4E1" stroke-width="12" stroke-linecap="round"/>
  <circle cx="272" cy="317" r="10" fill="#F05A41"/>
  <circle cx="423" cy="363" r="10" fill="#F05A41"/>
  <circle cx="554" cy="347" r="10" fill="#F05A41"/>
  <circle cx="739" cy="400" r="10" fill="#F05A41"/>
  <circle cx="387" cy="575" r="10" fill="#F05A41"/>
  <circle cx="724" cy="582" r="10" fill="#F05A41"/>
  <circle cx="167" cy="196" r="68" fill="#F05A41"/>
  <circle cx="167" cy="196" r="58" fill="#78C7F4"/>
  <circle cx="825" cy="212" r="68" fill="#F05A41"/>
  <circle cx="825" cy="212" r="58" fill="#78C7F4"/>
  <circle cx="842" cy="575" r="68" fill="#F05A41"/>
  <circle cx="842" cy="575" r="58" fill="#78C7F4"/>
  <circle cx="156" cy="547" r="68" fill="#F05A41"/>
  <circle cx="156" cy="547" r="58" fill="#78C7F4"/>
  <path d="M137 210C145 170 173 154 196 164C218 174 227 206 207 228C190 247 156 250 137 210Z" fill="#7D8B5C"/>
  <path d="M805 229C815 181 844 164 868 175C892 187 898 220 877 244C857 267 822 263 805 229Z" fill="#5FA77F"/>
  <path d="M824 595C833 560 855 547 878 556C901 565 910 591 895 614C880 636 845 635 824 595Z" fill="#6A8D4C"/>
  <path d="M137 566C143 537 168 523 194 531C219 540 229 563 219 585C208 608 180 614 156 603C143 596 134 583 137 566Z" fill="#C8E7A4"/>
  <text x="56" y="69" fill="#FFFDF7" font-family="Arial, sans-serif" font-size="60" font-weight="700">Heartopia Wildlife Routes</text>
  <text x="58" y="117" fill="#F8FEFF" font-family="Arial, sans-serif" font-size="26" font-weight="700">Map-style visual for guide hubs, resource routes, and location callouts</text>
</svg>
